<svg width="78" height="14" viewBox="0 0 78 14" fill="none" xmlns="http://www.w3.org/2000/svg">
<path d="M12.4497 5.16296C12.4105 5.04743 12.3383 4.94591 12.242 4.87094C12.1457 4.79597 12.0296 4.75083 11.908 4.7411L8.34974 4.4584L6.80999 1.05045C6.76096 0.940691 6.6812 0.847464 6.58034 0.782023C6.47948 0.716582 6.36184 0.681726 6.2416 0.68166C6.12137 0.681594 6.00369 0.716321 5.90276 0.781651C5.80183 0.846981 5.72197 0.940121 5.67281 1.04983L4.13306 4.4584L0.574848 4.7411C0.455298 4.75057 0.341007 4.79428 0.245649 4.86699C0.150291 4.9397 0.0779045 5.03835 0.0371484 5.15112C-0.00360776 5.26389 -0.0110073 5.38602 0.0158351 5.50288C0.0426776 5.61975 0.102625 5.72641 0.188506 5.8101L2.818 8.37308L1.88804 12.3995C1.8598 12.5213 1.86885 12.6489 1.91401 12.7656C1.95918 12.8822 2.03837 12.9826 2.14131 13.0537C2.24426 13.1249 2.3662 13.1634 2.49132 13.1643C2.61644 13.1653 2.73895 13.1286 2.84297 13.0591L6.2414 10.7938L9.63984 13.0591C9.74615 13.1297 9.87153 13.166 9.99911 13.1632C10.1267 13.1604 10.2504 13.1186 10.3535 13.0434C10.4566 12.9683 10.5342 12.8633 10.5759 12.7427C10.6176 12.6221 10.6213 12.4917 10.5867 12.3689L9.4451 8.37496L12.2762 5.82757C12.4616 5.66033 12.5296 5.39947 12.4497 5.16296Z" fill="#758091"/>
<path d="M28.7733 5.16296C28.7341 5.04742 28.6619 4.94591 28.5656 4.87094C28.4693 4.79597 28.3532 4.75083 28.2316 4.7411L24.6734 4.4584L23.1336 1.05045C23.0846 0.940689 23.0048 0.847462 22.9039 0.782021C22.8031 0.71658 22.6854 0.681724 22.5652 0.681658C22.445 0.681592 22.3273 0.716319 22.2264 0.781649C22.1254 0.846979 22.0456 0.940119 21.9964 1.04983L20.4567 4.4584L16.8985 4.7411C16.7789 4.75057 16.6646 4.79427 16.5693 4.86699C16.4739 4.9397 16.4015 5.03835 16.3608 5.15112C16.32 5.26389 16.3126 5.38601 16.3394 5.50288C16.3663 5.61975 16.4262 5.72641 16.5121 5.8101L19.1416 8.37308L18.2116 12.3995C18.1834 12.5213 18.1925 12.6489 18.2376 12.7656C18.2828 12.8822 18.362 12.9826 18.4649 13.0537C18.5679 13.1249 18.6898 13.1634 18.8149 13.1643C18.94 13.1653 19.0626 13.1286 19.1666 13.0591L22.565 10.7938L25.9634 13.0591C26.0698 13.1297 26.1951 13.166 26.3227 13.1632C26.4503 13.1604 26.574 13.1186 26.6771 13.0434C26.7802 12.9683 26.8578 12.8633 26.8995 12.7427C26.9412 12.6221 26.9449 12.4917 26.9103 12.3689L25.7687 8.37495L28.5998 5.82757C28.7852 5.66033 28.8532 5.39947 28.7733 5.16296Z" fill="#758091"/>
<path d="M45.0968 5.16296C45.0576 5.04742 44.9854 4.94591 44.8891 4.87094C44.7928 4.79597 44.6767 4.75083 44.5551 4.7411L40.9968 4.4584L39.4571 1.05045C39.4081 0.940689 39.3283 0.847462 39.2274 0.782021C39.1266 0.71658 39.0089 0.681724 38.8887 0.681658C38.7685 0.681592 38.6508 0.716319 38.5499 0.781649C38.4489 0.846979 38.3691 0.940119 38.3199 1.04983L36.7802 4.4584L33.2219 4.7411C33.1024 4.75057 32.9881 4.79427 32.8927 4.86699C32.7974 4.9397 32.725 5.03835 32.6842 5.15112C32.6435 5.26389 32.6361 5.38601 32.6629 5.50288C32.6898 5.61975 32.7497 5.72641 32.8356 5.8101L35.4651 8.37308L34.5351 12.3995C34.5069 12.5213 34.5159 12.6489 34.5611 12.7656C34.6063 12.8822 34.6855 12.9826 34.7884 13.0537C34.8914 13.1249 35.0133 13.1634 35.1384 13.1643C35.2635 13.1653 35.386 13.1286 35.4901 13.0591L38.8885 10.7938L42.2869 13.0591C42.3932 13.1297 42.5186 13.166 42.6462 13.1632C42.7738 13.1604 42.8975 13.1186 43.0006 13.0434C43.1037 12.9683 43.1813 12.8633 43.223 12.7427C43.2647 12.6221 43.2684 12.4917 43.2337 12.3689L42.0922 8.37495L44.9233 5.82757C45.1087 5.66033 45.1767 5.39947 45.0968 5.16296Z" fill="#758091"/>
<path d="M61.4204 5.16296C61.3812 5.04742 61.3089 4.94591 61.2127 4.87094C61.1164 4.79597 61.0003 4.75083 60.8786 4.7411L57.3204 4.4584L55.7807 1.05045C55.7316 0.940689 55.6519 0.847462 55.551 0.782021C55.4502 0.71658 55.3325 0.681724 55.2123 0.681658C55.092 0.681592 54.9744 0.716319 54.8734 0.781649C54.7725 0.846979 54.6926 0.940119 54.6435 1.04983L53.1037 4.4584L49.5455 4.7411C49.426 4.75057 49.3117 4.79427 49.2163 4.86699C49.121 4.9397 49.0486 5.03835 49.0078 5.15112C48.9671 5.26389 48.9597 5.38601 48.9865 5.50288C49.0134 5.61975 49.0733 5.72641 49.1592 5.8101L51.7887 8.37308L50.8587 12.3995C50.8305 12.5213 50.8395 12.6489 50.8847 12.7656C50.9298 12.8822 51.009 12.9826 51.112 13.0537C51.2149 13.1249 51.3369 13.1634 51.462 13.1643C51.5871 13.1653 51.7096 13.1286 51.8136 13.0591L55.2121 10.7938L58.6105 13.0591C58.7168 13.1297 58.8422 13.166 58.9698 13.1632C59.0974 13.1604 59.221 13.1186 59.3241 13.0434C59.4273 12.9683 59.5049 12.8633 59.5466 12.7427C59.5883 12.6221 59.592 12.4917 59.5573 12.3689L58.4158 8.37495L61.2469 5.82757C61.4322 5.66033 61.5003 5.39947 61.4204 5.16296Z" fill="#758091"/>
<path d="M77.7439 5.16296C77.7047 5.04742 77.6325 4.94591 77.5362 4.87094C77.4399 4.79597 77.3238 4.75083 77.2021 4.7411L73.6439 4.4584L72.1042 1.05045C72.0551 0.940689 71.9754 0.847462 71.8745 0.782021C71.7737 0.71658 71.656 0.681724 71.5358 0.681658C71.4156 0.681592 71.2979 0.716319 71.1969 0.781649C71.096 0.846979 71.0162 0.940119 70.967 1.04983L69.4273 4.4584L65.869 4.7411C65.7495 4.75057 65.6352 4.79427 65.5398 4.86699C65.4445 4.9397 65.3721 5.03835 65.3313 5.15112C65.2906 5.26389 65.2832 5.38601 65.31 5.50288C65.3369 5.61975 65.3968 5.72641 65.4827 5.8101L68.1122 8.37308L67.1822 12.3995C67.154 12.5213 67.163 12.6489 67.2082 12.7656C67.2534 12.8822 67.3326 12.9826 67.4355 13.0537C67.5384 13.1249 67.6604 13.1634 67.7855 13.1643C67.9106 13.1653 68.0331 13.1286 68.1372 13.0591L71.5356 10.7938L74.934 13.0591C75.0403 13.1297 75.1657 13.166 75.2933 13.1632C75.4209 13.1604 75.5445 13.1186 75.6477 13.0434C75.7508 12.9683 75.8284 12.8633 75.8701 12.7427C75.9118 12.6221 75.9155 12.4917 75.8808 12.3689L74.7393 8.37495L77.5704 5.82757C77.7558 5.66033 77.8238 5.39947 77.7439 5.16296Z" fill="#758091"/>
</svg>
